<?xml version="1.0" encoding="iso-8859-1"?>
<!-- Generator: Adobe Illustrator 19.0.0, SVG Export Plug-In . SVG Version: 6.00 Build 0)  -->
<svg xmlns="http://www.w3.org/2000/svg">
	<svg id="print" xmlns:xlink="http://www.w3.org/1999/xlink" x="0px" y="0px"
		viewBox="0 0 512 512" style="enable-background:new 0 0 512 512;" xml:space="preserve">
	<g>
		<g>
			<path d="M509.069,140.792c-1.859-1.86-4.439-2.93-7.069-2.93s-5.21,1.07-7.07,2.93c-1.86,1.86-2.93,4.44-2.93,7.07
				s1.069,5.21,2.93,7.07c1.861,1.86,4.44,2.93,7.07,2.93s5.21-1.07,7.069-2.93c1.86-1.86,2.931-4.44,2.931-7.07
				S510.93,142.652,509.069,140.792z"/>
		</g>
	</g>
	<g>
		<g>
			<path d="M502,114.031c5.522,0,10-4.477,10-10v-54c0-3.207-1.539-6.22-4.138-8.101c-2.6-1.881-5.941-2.402-8.99-1.397L338,93.503
				l-160.872-52.97c-2.015-0.663-4.154-0.648-6.126-0.027c-0.043,0.009-0.084,0.012-0.13,0.027l-164,54
				C2.771,95.884,0,99.714,0,104.032V461.97c0,3.208,1.539,6.221,4.138,8.102c1.728,1.25,3.783,1.898,5.863,1.898
				c1.049,0,2.104-0.165,3.127-0.501L174,418.498l160.872,52.97c1.022,0.336,2.078,0.501,3.127,0.501c1.06,0,2.114-0.171,3.122-0.502
				c0.002-0.001,0.005,0.001,0.007,0l164-54c4.101-1.351,6.872-5.181,6.872-9.499V192.083c0-5.523-4.478-10-10-10
				c-5.522,0-10,4.477-10,10v208.651l-144,47.415V111.267l144-47.415v40.179C492,109.554,496.478,114.031,502,114.031z M164,400.733
				L20,448.148V111.267l144-47.415V400.733z M328,448.149l-144-47.415V63.853l144,47.415V448.149z"/>
		</g>
	</g>
	<g>
		<g>
			<path d="M139.862,112.1c-2.6-1.88-5.941-2.401-8.99-1.397l-84,27.658C42.771,139.712,40,143.542,40,147.86v95.63
				c0,3.209,1.539,6.222,4.138,8.103c1.728,1.25,3.783,1.898,5.863,1.898c1.049,0,2.104-0.165,3.127-0.501l84-27.659
				c4.101-1.351,6.872-5.181,6.872-9.499v-95.63C144,116.994,142.461,113.981,139.862,112.1z M124,208.597L60,229.67v-74.574
				l64-21.073V208.597z"/>
		</g>
	</g>
	<g>
		<g>
			<path d="M143.498,264.031c-1.726-5.246-7.378-8.097-12.626-6.371l-84,27.659c-5.245,1.728-8.098,7.38-6.37,12.626
				c1.385,4.208,5.296,6.875,9.496,6.875c1.036,0,2.092-0.163,3.13-0.504l84-27.659C142.373,274.929,145.226,269.277,143.498,264.031
				z"/>
		</g>
	</g>
	<g>
		<g>
			<path d="M143.498,310.357c-1.726-5.245-7.378-8.096-12.626-6.371l-84,27.658c-5.245,1.728-8.098,7.38-6.37,12.626
				c1.385,4.208,5.296,6.875,9.496,6.875c1.036,0,2.092-0.163,3.13-0.504l84-27.658C142.373,321.255,145.226,315.603,143.498,310.357
				z"/>
		</g>
	</g>
	<g>
		<g>
			<path d="M143.498,356.683c-1.727-5.246-7.378-8.096-12.626-6.371l-42,13.83c-5.245,1.728-8.098,7.38-6.37,12.626
				c1.385,4.208,5.296,6.875,9.496,6.875c1.037,0,2.091-0.163,3.13-0.504l42-13.83C142.373,367.581,145.226,361.929,143.498,356.683z
				"/>
		</g>
	</g>
	<g>
		<g>
			<path d="M57.069,380.402c-1.859-1.86-4.439-2.93-7.069-2.93s-5.21,1.07-7.07,2.93s-2.93,4.43-2.93,7.07
				c0,2.63,1.069,5.21,2.93,7.07c1.861,1.86,4.44,2.93,7.07,2.93s5.21-1.07,7.069-2.93c1.86-1.86,2.931-4.44,2.931-7.07
				C60,384.832,58.93,382.262,57.069,380.402z"/>
		</g>
	</g>
	<g>
		<g>
			<path d="M467.862,112.1c-2.6-1.88-5.94-2.401-8.99-1.397l-84,27.658c-4.101,1.351-6.872,5.181-6.872,9.499v95.63
				c0,3.209,1.539,6.222,4.138,8.103c1.728,1.25,3.783,1.898,5.863,1.898c1.049,0,2.104-0.165,3.127-0.501l84-27.659
				c4.101-1.351,6.872-5.181,6.872-9.499v-95.63C472,116.994,470.461,113.981,467.862,112.1z M452,208.597l-64,21.073v-74.574
				l64-21.073V208.597z"/>
		</g>
	</g>
	<g>
		<g>
			<path d="M471.498,264.031c-1.727-5.246-7.377-8.098-12.626-6.371l-84,27.659c-5.245,1.728-8.098,7.38-6.37,12.626
				c1.385,4.208,5.296,6.875,9.496,6.875c1.036,0,2.092-0.163,3.13-0.504l84-27.659C470.373,274.93,473.226,269.277,471.498,264.031z
				"/>
		</g>
	</g>
	<g>
		<g>
			<path d="M471.498,310.357c-1.727-5.246-7.377-8.096-12.626-6.371l-84,27.658c-5.245,1.728-8.098,7.38-6.37,12.626
				c1.385,4.208,5.296,6.875,9.496,6.875c1.036,0,2.092-0.163,3.13-0.504l84-27.658C470.373,321.256,473.226,315.603,471.498,310.357
				z"/>
		</g>
	</g>
	<g>
		<g>
			<path d="M471.498,356.683c-1.727-5.245-7.377-8.097-12.626-6.371l-84,27.659c-5.245,1.728-8.098,7.38-6.37,12.626
				c1.385,4.208,5.296,6.875,9.496,6.875c1.036,0,2.092-0.163,3.13-0.504l84-27.659C470.373,367.581,473.226,361.929,471.498,356.683
				z"/>
		</g>
	</g>
	<g>
		<g>
			<path d="M301.255,282.341l-84-27.659c-3.049-1.004-6.391-0.484-8.99,1.397c-2.599,1.88-4.138,4.894-4.138,8.102v95.63
				c0,4.318,2.771,8.148,6.872,9.499l84,27.659c1.022,0.336,2.078,0.501,3.127,0.501c2.079,0,4.136-0.648,5.863-1.898
				c2.599-1.88,4.138-4.894,4.138-8.102v-95.63C308.127,287.521,305.355,283.691,301.255,282.341z M288.127,373.648l-64-21.073
				v-74.574l64,21.073V373.648z"/>
		</g>
	</g>
	<g>
		<g>
			<path d="M301.255,231.015l-84-27.659c-5.248-1.727-10.899,1.125-12.626,6.371c-1.728,5.246,1.125,10.898,6.37,12.626l84,27.659
				c1.039,0.342,2.093,0.504,3.13,0.504c4.2,0,8.111-2.668,9.496-6.875C309.353,238.395,306.5,232.742,301.255,231.015z"/>
		</g>
	</g>
	<g>
		<g>
			<path d="M301.255,184.688l-84-27.659c-5.248-1.725-10.899,1.125-12.626,6.371c-1.728,5.246,1.125,10.898,6.37,12.626l84,27.659
				c1.039,0.342,2.093,0.504,3.13,0.504c4.2,0,8.111-2.668,9.496-6.875C309.353,192.069,306.5,186.416,301.255,184.688z"/>
		</g>
	</g>
	<g>
		<g>
			<path d="M301.255,138.362l-84-27.658c-5.248-1.726-10.899,1.125-12.626,6.371c-1.728,5.246,1.125,10.898,6.37,12.626l84,27.658
				c1.039,0.342,2.093,0.504,3.13,0.504c4.2,0,8.111-2.668,9.496-6.875C309.353,145.743,306.5,140.09,301.255,138.362z"/>
		</g>
	</g>
	</svg>

	<svg version="1.1" id="web" xmlns="http://www.w3.org/2000/svg" xmlns:xlink="http://www.w3.org/1999/xlink" x="0px" y="0px"
	 viewBox="-49 141 512 512" style="enable-background:new -49 141 512 512;" xml:space="preserve">
		<path d="M276.3,493c-3.7,0-7.4-1.3-10.4-3.9c-6.7-5.8-7.5-15.9-1.7-22.6l23.1-26.9l-23.1-26.9c-5.8-6.7-5-16.8,1.7-22.6
			c6.7-5.8,16.8-5,22.6,1.7l32,37.3c5.1,6,5.1,14.8,0,20.8l-32,37.3C285.3,491.1,280.8,493,276.3,493L276.3,493z"/>
		<path d="M137.7,493c-4.5,0-9-1.9-12.2-5.6l-32-37.3c-5.1-6-5.1-14.8,0-20.8l32-37.3c5.8-6.7,15.9-7.5,22.6-1.7
			c6.7,5.8,7.5,15.9,1.7,22.6l-23.1,26.9l23.1,26.9c5.8,6.7,5,16.8-1.7,22.6C145.1,491.7,141.4,493,137.7,493L137.7,493z"/>
		<path d="M187.4,524.6c-8.6-2-14-10.6-12-19.2l32-138.7c2-8.6,10.6-13.9,19.2-12c8.6,2,14,10.6,12,19.2l-32,138.7
			C204.7,521.1,196.2,526.6,187.4,524.6z"/>
		<path d="M399,162.3H15c-35.2,0-64,28.8-64,64v341.3c0,35.2,28.8,64,64,64h384c35.2,0,64-28.8,64-64V226.3
			C463,191.1,434.2,162.3,399,162.3z M381.7,189.8c14.7,0,26.7,11.9,26.7,26.7s-11.9,26.7-26.7,26.7s-26.7-11.9-26.7-26.7
			S367,189.8,381.7,189.8z M319.7,189.8c14.7,0,26.7,11.9,26.7,26.7s-11.9,26.7-26.7,26.7s-26.7-11.9-26.7-26.7S305,189.8,319.7,189.8
			z M257.7,189.8c14.7,0,26.7,11.9,26.7,26.7s-11.9,26.7-26.7,26.7s-26.7-11.9-26.7-26.7S243,189.8,257.7,189.8z M420.3,567.7
			c0,11.7-9.6,21.3-21.3,21.3H15c-11.7,0-21.3-9.6-21.3-21.3V269h426.7V567.7z"/>
	</svg>

	<svg version="1.1" id="visualid" xmlns="http://www.w3.org/2000/svg" xmlns:xlink="http://www.w3.org/1999/xlink" x="0px" y="0px"
	 viewBox="0 0 512 512" style="enable-background:new 0 0 512 512;" xml:space="preserve">
	<g>
		<g>
			<path d="M512,258.741c0-3.565-1.86-6.87-4.908-8.719l-19.573-11.878l19.573-11.878c3.047-1.849,4.908-5.155,4.908-8.719
				s-1.86-6.869-4.908-8.719L250.094,52.862c-3.253-1.975-7.331-1.975-10.584,0L116.5,127.513L15.442,66.958
				c-3.152-1.888-7.073-1.935-10.27-0.124C1.976,68.644,0,72.033,0,75.707v215.328c0,3.585,1.882,6.906,4.957,8.749l265.994,159.385
				c1.612,0.966,3.426,1.45,5.242,1.45c1.733,0,3.467-0.442,5.028-1.326c3.196-1.81,5.171-5.201,5.171-8.873v-75.255l50.159,30.44
				c1.627,0.987,3.46,1.48,5.291,1.48c1.832,0,3.666-0.493,5.291-1.48l159.958-97.073c3.047-1.849,4.908-5.155,4.908-8.719
				c0-3.564-1.86-6.869-4.908-8.719l-19.471-11.817l19.471-11.817C510.14,265.61,512,262.306,512,258.741z M265.994,432.419
				L20.398,285.256V93.708L265.994,240.87V432.419z M286.393,269.036v-33.945c0-3.585-1.882-6.906-4.957-8.749l-145.151-86.975
				l108.518-65.856l237.34,144.034l-140.299,85.142L286.393,269.036z M482.142,258.741l-140.299,85.143l-55.45-33.651v-17.335
				l50.159,30.44c1.627,0.987,3.46,1.48,5.291,1.48c1.832,0,3.666-0.493,5.291-1.48l120.725-73.264L482.142,258.741z
				M341.843,384.954l-55.45-33.651v-17.21l50.159,30.44c1.627,0.987,3.46,1.48,5.291,1.48c1.832,0,3.666-0.493,5.291-1.48
				l120.828-73.327l14.181,8.607L341.843,384.954z"/>
		</g>
	</g>
	<g>
		<g>
			<path d="M367.808,219.96L228.487,135.41c-4.819-2.925-11.09-1.387-14.011,3.427c-2.922,4.816-1.387,11.089,3.427,14.011
				l139.321,84.549c1.653,1.005,3.478,1.482,5.281,1.482c3.447,0,6.811-1.747,8.729-4.909
				C374.157,229.154,372.622,222.882,367.808,219.96z"/>
		</g>
	</g>
	<g>
		<g>
			<path d="M227.601,274.767l-3.167-1.897c-4.831-2.897-11.095-1.325-13.99,3.508c-2.896,4.831-1.325,11.096,3.507,13.99l3.167,1.897
				c1.641,0.984,3.447,1.452,5.231,1.452c3.467,0,6.848-1.769,8.759-4.96C234.004,283.926,232.434,277.662,227.601,274.767z"/>
		</g>
	</g>
	<g>
		<g>
			<path d="M190.827,252.731L63.996,176.733c-4.831-2.894-11.096-1.325-13.991,3.506c-2.896,4.831-1.325,11.096,3.508,13.991
				l126.83,75.997c1.641,0.983,3.448,1.452,5.232,1.452c3.467,0,6.848-1.769,8.759-4.959
				C197.229,261.891,195.658,255.626,190.827,252.731z"/>
		</g>
	</g>
	<g>
		<g>
			<path d="M227.603,330.117L63.996,232.083c-4.831-2.893-11.096-1.325-13.991,3.506c-2.896,4.831-1.325,11.096,3.508,13.991
				l163.606,98.034c1.641,0.983,3.448,1.452,5.232,1.452c3.467,0,6.848-1.769,8.759-4.959
				C234.005,339.277,232.435,333.013,227.603,330.117z"/>
		</g>
	</g>
	</svg>

	<svg version="1.1" id="cms" xmlns="http://www.w3.org/2000/svg" xmlns:xlink="http://www.w3.org/1999/xlink" x="0px" y="0px"
	 viewBox="0 -16 512 512" style="enable-background:new 0 0 512 512;" xml:space="preserve">
		<path d="m316 60c5.519531 0 10-4.480469 10-10s-4.480469-10-10-10-10 4.480469-10 10 4.480469 10 10 10zm0 0"/>
		<path d="m133 60c5.519531 0 10-4.480469 10-10s-4.480469-10-10-10-10 4.480469-10 10 4.480469 10 10 10zm0 0"/>
		<path d="m70 60c5.519531 0 10-4.480469 10-10s-4.480469-10-10-10-10 4.480469-10 10 4.480469 10 10 10zm0 0"/>
		<path d="m482 0h-452c-16.542969 0-30 13.457031-30 30v420c0 16.542969 13.457031 30 30 30h452c16.542969 0 30-13.457031 30-30v-420c0-16.542969-13.457031-30-30-30zm-216 100h226v80h-226zm-236-80h452c5.515625 0 10 4.484375 10 10v50h-472v-50c0-5.515625 4.484375-10 10-10zm-10 430v-350h226v360h-216c-5.515625 0-10-4.484375-10-10zm462 10h-216v-260h226v250c0 5.515625-4.484375 10-10 10zm0 0"/>
		<path d="m356 60h86c5.523438 0 10-4.476562 10-10s-4.476562-10-10-10h-86c-5.523438 0-10 4.476562-10 10s4.476562 10 10 10zm0 0"/>
		<path d="m432 240h-106c-22.097656 0-40 17.898438-40 40 0 22.054688 17.945312 40 40 40h106c22.054688 0 40-17.945312 40-40s-17.945312-40-40-40zm-126 40c0-11.046875 8.953125-20.011719 20-20.011719h71.382812c-3.417968 5.890625-5.382812 12.730469-5.382812 20.011719s1.964844 14.113281 5.382812 20h-71.382812c-11.027344 0-20-8.972656-20-20zm126 20c-11.027344 0-20-8.972656-20-20s8.972656-20 20-20 20 8.972656 20 20-8.972656 20-20 20zm0 0"/>
		<path d="m462 380h-116v-10c0-5.523438-4.476562-10-10-10s-10 4.476562-10 10v10h-30c-5.523438 0-10 4.476562-10 10s4.476562 10 10 10h30v10c0 5.523438 4.476562 10 10 10s10-4.476562 10-10v-10h116c5.523438 0 10-4.476562 10-10s-4.476562-10-10-10zm0 0"/>
		<path d="m216 140h-166c-5.523438 0-10 4.476562-10 10v60c0 5.523438 4.476562 10 10 10h166c5.523438 0 10-4.476562 10-10v-60c0-5.523438-4.476562-10-10-10zm-10 60h-146v-40h146zm0 0"/>
		<path d="m216 260h-166c-5.523438 0-10 4.476562-10 10s4.476562 10 10 10h166c5.523438 0 10-4.476562 10-10s-4.476562-10-10-10zm0 0"/>
		<path d="m216 320c-18.71875 0-146.273438 0-166 0-5.523438 0-10 4.476562-10 10v80c0 5.523438 4.476562 10 10 10h166c5.523438 0 10-4.476562 10-10v-80c0-5.523438-4.476562-10-10-10zm-156 20h63v60h-63zm146 60h-63v-60h63zm0 0"/>
	</svg>

</svg>


