<?xml version="1.0" standalone="no"?>
<!DOCTYPE svg PUBLIC "-//W3C//DTD SVG 20010904//EN"
 "http://www.w3.org/TR/2001/REC-SVG-20010904/DTD/svg10.dtd">
<svg version="1.0" xmlns="http://www.w3.org/2000/svg"
 width="228.000000pt" height="228.000000pt" viewBox="0 0 228.000000 228.000000"
 preserveAspectRatio="xMidYMid meet">
<metadata>
Created by potrace 1.11, written by Peter Selinger 2001-2013
</metadata>
<g transform="translate(0.000000,228.000000) scale(0.100000,-0.100000)"
fill="#000000" stroke="none">
<path d="M162 2263 c-23 -8 -62 -34 -86 -59 -80 -80 -76 -21 -76 -1059 0
-1000 -1 -975 55 -1049 16 -21 49 -49 74 -64 l46 -27 946 -3 c1065 -2 1005 -6
1084 73 79 78 75 23 75 1060 0 998 1 977 -54 1049 -14 19 -47 47 -73 62 l-48
29 -950 2 c-824 1 -956 -1 -993 -14z"/>
</g>
</svg>
